<mxfile host="Electron" agent="Mozilla/5.0 (X11; Linux x86_64) AppleWebKit/537.36 (KHTML, like Gecko) draw.io/24.7.8 Chrome/128.0.6613.36 Electron/32.0.1 Safari/537.36" version="24.7.8">
  <diagram name="Page-1" id="LInRqrQsV4V-wmSq09pM">
    <mxGraphModel dx="1434" dy="835" grid="1" gridSize="10" guides="1" tooltips="1" connect="1" arrows="1" fold="1" page="1" pageScale="1" pageWidth="850" pageHeight="1100" math="0" shadow="0">
      <root>
        <mxCell id="0" />
        <mxCell id="1" parent="0" />
        <mxCell id="Vv3zLhDwNzCCgq5lBk2P-1" value="" style="rounded=0;whiteSpace=wrap;html=1;" parent="1" vertex="1">
          <mxGeometry x="560" y="200" width="160" height="520" as="geometry" />
        </mxCell>
        <mxCell id="Vv3zLhDwNzCCgq5lBk2P-2" value="" style="endArrow=classic;html=1;rounded=0;entryX=0;entryY=1;entryDx=0;entryDy=0;" parent="1" edge="1">
          <mxGeometry width="50" height="50" relative="1" as="geometry">
            <mxPoint x="520" y="718.82" as="sourcePoint" />
            <mxPoint x="560" y="718.82" as="targetPoint" />
          </mxGeometry>
        </mxCell>
        <mxCell id="Vv3zLhDwNzCCgq5lBk2P-3" value="&lt;pre&gt;0x0&lt;/pre&gt;" style="edgeLabel;html=1;align=center;verticalAlign=middle;resizable=0;points=[];fontFamily=Comic Sans MS;labelBackgroundColor=none;" parent="Vv3zLhDwNzCCgq5lBk2P-2" vertex="1" connectable="0">
          <mxGeometry x="-0.5286" y="-1" relative="1" as="geometry">
            <mxPoint y="-11" as="offset" />
          </mxGeometry>
        </mxCell>
        <mxCell id="Vv3zLhDwNzCCgq5lBk2P-7" value="" style="endArrow=classic;html=1;rounded=0;entryX=0;entryY=1;entryDx=0;entryDy=0;" parent="1" edge="1">
          <mxGeometry width="50" height="50" relative="1" as="geometry">
            <mxPoint x="520" y="638.82" as="sourcePoint" />
            <mxPoint x="560" y="638.82" as="targetPoint" />
          </mxGeometry>
        </mxCell>
        <mxCell id="Vv3zLhDwNzCCgq5lBk2P-8" value="&lt;pre&gt;Kernbase&lt;br&gt;0x80000000&lt;/pre&gt;" style="edgeLabel;html=1;align=center;verticalAlign=middle;resizable=0;points=[];fontFamily=Comic Sans MS;labelBackgroundColor=none;" parent="Vv3zLhDwNzCCgq5lBk2P-7" vertex="1" connectable="0">
          <mxGeometry x="-0.5286" y="-1" relative="1" as="geometry">
            <mxPoint x="-10" y="-15" as="offset" />
          </mxGeometry>
        </mxCell>
        <mxCell id="Vv3zLhDwNzCCgq5lBk2P-16" value="Physical Memory" style="text;html=1;align=center;verticalAlign=middle;resizable=0;points=[];autosize=1;strokeColor=none;fillColor=none;" parent="1" vertex="1">
          <mxGeometry x="580" y="170" width="120" height="30" as="geometry" />
        </mxCell>
        <mxCell id="Vv3zLhDwNzCCgq5lBk2P-25" value="MMIO" style="rounded=0;whiteSpace=wrap;html=1;" parent="1" vertex="1">
          <mxGeometry x="560" y="638.82" width="160" height="81.18" as="geometry" />
        </mxCell>
        <mxCell id="Vv3zLhDwNzCCgq5lBk2P-26" value="Kernel data and text" style="rounded=0;whiteSpace=wrap;html=1;" parent="1" vertex="1">
          <mxGeometry x="560" y="590" width="160" height="48.82" as="geometry" />
        </mxCell>
        <mxCell id="Vv3zLhDwNzCCgq5lBk2P-28" value="" style="endArrow=classic;html=1;rounded=0;entryX=0;entryY=1;entryDx=0;entryDy=0;" parent="1" edge="1">
          <mxGeometry width="50" height="50" relative="1" as="geometry">
            <mxPoint x="520" y="199.31000000000006" as="sourcePoint" />
            <mxPoint x="560" y="199.31000000000006" as="targetPoint" />
          </mxGeometry>
        </mxCell>
        <mxCell id="Vv3zLhDwNzCCgq5lBk2P-29" value="&lt;pre&gt;PHYSTOP&lt;br&gt;0x88000000&lt;/pre&gt;" style="edgeLabel;html=1;align=center;verticalAlign=middle;resizable=0;points=[];fontFamily=Comic Sans MS;labelBackgroundColor=none;" parent="Vv3zLhDwNzCCgq5lBk2P-28" vertex="1" connectable="0">
          <mxGeometry x="-0.5286" y="-1" relative="1" as="geometry">
            <mxPoint x="-10" y="-15" as="offset" />
          </mxGeometry>
        </mxCell>
        <mxCell id="Vv3zLhDwNzCCgq5lBk2P-30" value="" style="shape=curlyBracket;whiteSpace=wrap;html=1;rounded=1;flipH=1;labelPosition=right;verticalLabelPosition=middle;align=left;verticalAlign=middle;" parent="1" vertex="1">
          <mxGeometry x="720" y="450" width="20" height="90" as="geometry" />
        </mxCell>
        <mxCell id="Vv3zLhDwNzCCgq5lBk2P-38" value="Address Space 1" style="text;html=1;align=center;verticalAlign=middle;resizable=0;points=[];autosize=1;strokeColor=none;fillColor=none;" parent="1" vertex="1">
          <mxGeometry x="735" y="480" width="110" height="30" as="geometry" />
        </mxCell>
        <mxCell id="Vv3zLhDwNzCCgq5lBk2P-43" value="User text and data" style="rounded=0;whiteSpace=wrap;html=1;fillColor=#ffe6cc;strokeColor=#d79b00;" parent="1" vertex="1">
          <mxGeometry x="560" y="430" width="160" height="20" as="geometry" />
        </mxCell>
        <mxCell id="Vv3zLhDwNzCCgq5lBk2P-44" value="User Stack" style="rounded=0;whiteSpace=wrap;html=1;fillColor=#ffe6cc;strokeColor=#d79b00;" parent="1" vertex="1">
          <mxGeometry x="560" y="410" width="160" height="20" as="geometry" />
        </mxCell>
        <mxCell id="Vv3zLhDwNzCCgq5lBk2P-45" value="Allocated Heap Space" style="rounded=0;whiteSpace=wrap;html=1;fillColor=#ffe6cc;strokeColor=#d79b00;" parent="1" vertex="1">
          <mxGeometry x="560" y="388.82" width="160" height="21.18" as="geometry" />
        </mxCell>
        <mxCell id="Vv3zLhDwNzCCgq5lBk2P-46" value="Free Heap Space" style="rounded=0;whiteSpace=wrap;html=1;fillColor=#ffe6cc;strokeColor=#d79b00;" parent="1" vertex="1">
          <mxGeometry x="560" y="360" width="160" height="28.82" as="geometry" />
        </mxCell>
        <mxCell id="erv0wpMIXQUOzV1S1D3V-5" value="...more Address Spaces" style="rounded=0;whiteSpace=wrap;html=1;" parent="1" vertex="1">
          <mxGeometry x="560" y="200" width="160" height="70" as="geometry" />
        </mxCell>
        <mxCell id="1ln9KzSCrnvjGZ_2OXn5-2" value="kalloc Free Space" style="rounded=0;whiteSpace=wrap;html=1;fillColor=#f5f5f5;fontColor=#333333;strokeColor=#666666;" vertex="1" parent="1">
          <mxGeometry x="560" y="540" width="160" height="50" as="geometry" />
        </mxCell>
        <mxCell id="1ln9KzSCrnvjGZ_2OXn5-3" value="User text and data" style="rounded=0;whiteSpace=wrap;html=1;fillColor=#dae8fc;strokeColor=#6c8ebf;" vertex="1" parent="1">
          <mxGeometry x="560" y="520" width="160" height="20" as="geometry" />
        </mxCell>
        <mxCell id="1ln9KzSCrnvjGZ_2OXn5-4" value="User Stack" style="rounded=0;whiteSpace=wrap;html=1;fillColor=#dae8fc;strokeColor=#6c8ebf;" vertex="1" parent="1">
          <mxGeometry x="560" y="500" width="160" height="20" as="geometry" />
        </mxCell>
        <mxCell id="1ln9KzSCrnvjGZ_2OXn5-5" value="Allocated Heap Space" style="rounded=0;whiteSpace=wrap;html=1;fillColor=#dae8fc;strokeColor=#6c8ebf;" vertex="1" parent="1">
          <mxGeometry x="560" y="478.82" width="160" height="21.18" as="geometry" />
        </mxCell>
        <mxCell id="1ln9KzSCrnvjGZ_2OXn5-6" value="Free Heap Space" style="rounded=0;whiteSpace=wrap;html=1;fillColor=#dae8fc;strokeColor=#6c8ebf;" vertex="1" parent="1">
          <mxGeometry x="560" y="450" width="160" height="28.82" as="geometry" />
        </mxCell>
        <mxCell id="1ln9KzSCrnvjGZ_2OXn5-7" value="User text and data" style="rounded=0;whiteSpace=wrap;html=1;fillColor=#fff2cc;strokeColor=#d6b656;" vertex="1" parent="1">
          <mxGeometry x="560" y="340" width="160" height="20" as="geometry" />
        </mxCell>
        <mxCell id="1ln9KzSCrnvjGZ_2OXn5-8" value="User Stack" style="rounded=0;whiteSpace=wrap;html=1;fillColor=#fff2cc;strokeColor=#d6b656;" vertex="1" parent="1">
          <mxGeometry x="560" y="320" width="160" height="20" as="geometry" />
        </mxCell>
        <mxCell id="1ln9KzSCrnvjGZ_2OXn5-9" value="Allocated Heap Space" style="rounded=0;whiteSpace=wrap;html=1;fillColor=#fff2cc;strokeColor=#d6b656;" vertex="1" parent="1">
          <mxGeometry x="560" y="298.82" width="160" height="21.18" as="geometry" />
        </mxCell>
        <mxCell id="1ln9KzSCrnvjGZ_2OXn5-10" value="Free Heap Space" style="rounded=0;whiteSpace=wrap;html=1;fillColor=#fff2cc;strokeColor=#d6b656;" vertex="1" parent="1">
          <mxGeometry x="560" y="270" width="160" height="28.82" as="geometry" />
        </mxCell>
        <mxCell id="1ln9KzSCrnvjGZ_2OXn5-12" value="" style="shape=curlyBracket;whiteSpace=wrap;html=1;rounded=1;flipH=1;labelPosition=right;verticalLabelPosition=middle;align=left;verticalAlign=middle;" vertex="1" parent="1">
          <mxGeometry x="720" y="360" width="20" height="90" as="geometry" />
        </mxCell>
        <mxCell id="1ln9KzSCrnvjGZ_2OXn5-13" value="" style="shape=curlyBracket;whiteSpace=wrap;html=1;rounded=1;flipH=1;labelPosition=right;verticalLabelPosition=middle;align=left;verticalAlign=middle;" vertex="1" parent="1">
          <mxGeometry x="720" y="270" width="20" height="90" as="geometry" />
        </mxCell>
        <mxCell id="1ln9KzSCrnvjGZ_2OXn5-14" value="Address Space 2" style="text;html=1;align=center;verticalAlign=middle;resizable=0;points=[];autosize=1;strokeColor=none;fillColor=none;" vertex="1" parent="1">
          <mxGeometry x="735" y="390" width="110" height="30" as="geometry" />
        </mxCell>
        <mxCell id="1ln9KzSCrnvjGZ_2OXn5-15" value="Address Space 3" style="text;html=1;align=center;verticalAlign=middle;resizable=0;points=[];autosize=1;strokeColor=none;fillColor=none;" vertex="1" parent="1">
          <mxGeometry x="735" y="300" width="110" height="30" as="geometry" />
        </mxCell>
      </root>
    </mxGraphModel>
  </diagram>
</mxfile>
